<svg fill="currentColor" viewBox="0 0 40 40" xmlns="http://www.w3.org/2000/svg">
    <path d="M27.6182 19.0691L9.65568 4.95879C8.98771 4.43379 8.00568 4.90722 8.00568 5.75332L8.00568 33.9744C8.00568 34.8205 8.98771 35.2935 9.65568 34.7685L27.6182 20.6582C27.7387 20.5638 27.8362 20.4432 27.9032 20.3055C27.9703 20.1678 28.0051 20.0167 28.0051 19.8636C28.0051 19.7105 27.9703 19.5594 27.9032 19.4218C27.8362 19.2841 27.7387 19.1635 27.6182 19.0691ZM28.4432 3.36363H31.4432C31.5426 3.36363 31.638 3.40314 31.7083 3.47346C31.7787 3.54379 31.8182 3.63918 31.8182 3.73863L31.8182 35.9886C31.8182 36.0881 31.7787 36.1835 31.7083 36.2538C31.638 36.3241 31.5426 36.3636 31.4432 36.3636H28.4432C28.3437 36.3636 28.2483 36.3241 28.178 36.2538C28.1077 36.1835 28.0682 36.0881 28.0682 35.9886L28.0682 3.73863C28.0682 3.63918 28.1077 3.54379 28.178 3.47346C28.2483 3.40314 28.3437 3.36363 28.4432 3.36363Z" />
</svg>