
<svg width="30" height="30" viewBox="0 0 30 30" fill="currentColor" xmlns="http://www.w3.org/2000/svg">
<path d="M3.75 20H6.25V27.5C6.25 28.1904 5.69036 28.75 5 28.75C4.30964 28.75 3.75 28.1904 3.75 27.5V20Z" />
<path d="M13.75 16.25H16.25V27.5C16.25 28.1904 15.6904 28.75 15 28.75C14.3096 28.75 13.75 28.1904 13.75 27.5V16.25Z" />
<path d="M3.75 2.5C3.75 1.80964 4.30964 1.25 5 1.25C5.69036 1.25 6.25 1.80964 6.25 2.5V13.75H3.75V2.5Z" />
<path d="M23.75 20H26.25V27.5C26.25 28.1904 25.6904 28.75 25 28.75C24.3096 28.75 23.75 28.1904 23.75 27.5V20Z" />
<path d="M23.75 2.5C23.75 1.80964 24.3096 1.25 25 1.25C25.6904 1.25 26.25 1.80964 26.25 2.5V13.75H23.75V2.5Z" />
<path d="M13.75 2.5C13.75 1.80964 14.3096 1.25 15 1.25C15.6904 1.25 16.25 1.80964 16.25 2.5V10H13.75V2.5Z" />
<rect x="20" y="16.25" width="10" height="6.25" rx="2" />
<rect x="10" y="7.5" width="10" height="6.25" rx="2" />
<rect y="16.25" width="10" height="6.25" rx="2" />
</svg>
