<svg viewBox="0 0 30 30" fill="currentColor" xmlns="http://www.w3.org/2000/svg">
    <path d="M28.1246 3.20819H1.87462C1.7273 3.20819 1.60676 3.32873 1.60676 3.47605V5.61891C1.60676 5.76623 1.7273 5.88676 1.87462 5.88676H28.1246C28.2719 5.88676 28.3925 5.76623 28.3925 5.61891V3.47605C28.3925 3.32873 28.2719 3.20819 28.1246 3.20819ZM28.1246 24.101H1.87462C1.7273 24.101 1.60676 24.2216 1.60676 24.3689V26.5118C1.60676 26.6591 1.7273 26.7796 1.87462 26.7796H28.1246C28.2719 26.7796 28.3925 26.6591 28.3925 26.5118V24.3689C28.3925 24.2216 28.2719 24.101 28.1246 24.101ZM28.1246 13.6546H1.87462C1.7273 13.6546 1.60676 13.7752 1.60676 13.9225V16.0653C1.60676 16.2127 1.7273 16.3332 1.87462 16.3332H28.1246C28.2719 16.3332 28.3925 16.2127 28.3925 16.0653V13.9225C28.3925 13.7752 28.2719 13.6546 28.1246 13.6546Z" />
</svg>