<svg  viewBox="0 0 30 30"  xmlns="http://www.w3.org/2000/svg">
    <g clip-path="url(#clip0_10_823)">
        <g filter="url(#filter0_d_10_823)">
            <path  d="M26.4 5.34434L15.2372 2.03748C15.1128 1.99883 14.9809 1.98991 14.8523 2.01147C14.7237 2.03303 14.6022 2.08445 14.4977 2.16148C14.3937 2.23849 14.3093 2.33834 14.2512 2.45314C14.1931 2.56793 14.1628 2.69451 14.1628 2.82286V18.3927C13.154 17.2996 11.7899 16.5892 10.3067 16.3846C8.8234 16.18 7.31437 16.494 6.04086 17.2723C4.76735 18.0505 3.80953 19.244 3.33323 20.6461C2.85694 22.0483 2.89217 23.5707 3.43282 24.9499C3.97347 26.329 4.98549 27.4781 6.29368 28.1981C7.60186 28.9181 9.12383 29.1637 10.5961 28.8924C12.0683 28.6211 13.3981 27.85 14.3553 26.7125C15.3125 25.5751 15.8367 24.1429 15.8372 22.6641V10.5527L25.9256 13.5288C26.05 13.5675 26.1819 13.5764 26.3105 13.5548C26.4391 13.5333 26.5606 13.4819 26.6651 13.4048C26.7691 13.3278 26.8535 13.228 26.9116 13.1132C26.9697 12.9984 27 12.8718 27 12.7435V6.12972C27.0006 5.95205 26.9423 5.77907 26.834 5.63724C26.7256 5.4954 26.5732 5.39252 26.4 5.34434ZM9.4186 27.3488C8.48029 27.3488 7.56305 27.074 6.78288 26.5593C6.0027 26.0445 5.39462 25.3128 5.03555 24.4568C4.67647 23.6008 4.58252 22.6589 4.76558 21.7501C4.94863 20.8414 5.40047 20.0066 6.06396 19.3514C6.72744 18.6963 7.57278 18.2501 8.49306 18.0693C9.41334 17.8886 10.3672 17.9814 11.2341 18.3359C12.101 18.6905 12.842 19.291 13.3632 20.0614C13.8845 20.8318 14.1628 21.7375 14.1628 22.6641C14.1591 23.9054 13.6581 25.0949 12.7692 25.9726C11.8803 26.8504 10.6757 27.3451 9.4186 27.3488ZM25.3256 11.6274L15.8372 8.81655V3.93892L25.3256 6.74976V11.6274Z"  />
        </g>
    </g>
    <defs>
        <clipPath id="clip0_10_823">
            <rect width="100%" height="100%" />
        </clipPath>
    </defs>
</svg>