<svg  viewBox="0 0 85 85"  xmlns="http://www.w3.org/2000/svg">
    <g clip-path="url(#clip0_10_696)">
        <rect width="100%" height="100%" rx="42.5" fill="transparent"/>
        <path d="M42.5 0C34.0943 0 25.8774 2.49258 18.8883 7.16254C11.8992 11.8325 6.45186 18.4701 3.23514 26.2359C0.0184146 34.0018 -0.823227 42.5471 0.816645 50.7913C2.45652 59.0355 6.50425 66.6083 12.448 72.552C18.3917 78.4958 25.9645 82.5435 34.2087 84.1834C42.4529 85.8232 50.9982 84.9816 58.764 81.7649C66.5299 78.5481 73.1675 73.1008 77.8375 66.1117C82.5074 59.1226 85 50.9057 85 42.5C84.9784 31.2349 80.4938 20.4374 72.5282 12.4718C64.5626 4.5062 53.7651 0.0216013 42.5 0ZM35.9616 55.5769C35.9616 56.444 35.6171 57.2755 35.004 57.8886C34.3909 58.5017 33.5594 58.8461 32.6923 58.8461C31.8253 58.8461 30.9937 58.5017 30.3806 57.8886C29.7675 57.2755 29.4231 56.444 29.4231 55.5769V29.4231C29.4231 28.556 29.7675 27.7245 30.3806 27.1114C30.9937 26.4983 31.8253 26.1538 32.6923 26.1538C33.5594 26.1538 34.3909 26.4983 35.004 27.1114C35.6171 27.7245 35.9616 28.556 35.9616 29.4231V55.5769ZM55.5769 55.5769C55.5769 56.444 55.2325 57.2755 54.6194 57.8886C54.0063 58.5017 53.1748 58.8461 52.3077 58.8461C51.4406 58.8461 50.6091 58.5017 49.996 57.8886C49.3829 57.2755 49.0385 56.444 49.0385 55.5769V29.4231C49.0385 28.556 49.3829 27.7245 49.996 27.1114C50.6091 26.4983 51.4406 26.1538 52.3077 26.1538C53.1748 26.1538 54.0063 26.4983 54.6194 27.1114C55.2325 27.7245 55.5769 28.556 55.5769 29.4231V55.5769Z" />
    </g>
    <defs>
        <clipPath id="clip0_10_696">
            <rect width="100%" height="100%" rx="42.5" fill=""/>
        </clipPath>
    </defs>
</svg>