
<svg fill="currentColor" viewBox="0 0 85 85" fill="none" xmlns="http://www.w3.org/2000/svg">
<g clip-path="url(#clip0_10_1135)">
<rect width="100%" height="100%" rx="42.5" fill="transparent"/>
<path d="M42.5 0C34.0943 0 25.8774 2.49258 18.8883 7.16254C11.8992 11.8325 6.45186 18.4701 3.23514 26.2359C0.0184146 34.0018 -0.823227 42.5471 0.816645 50.7913C2.45652 59.0355 6.50425 66.6083 12.448 72.552C18.3917 78.4958 25.9645 82.5435 34.2087 84.1834C42.4529 85.8232 50.9982 84.9816 58.764 81.7649C66.5299 78.5481 73.1675 73.1008 77.8375 66.1117C82.5074 59.1226 85 50.9057 85 42.5C84.9784 31.2349 80.4938 20.4374 72.5282 12.4718C64.5626 4.5062 53.7651 0.0216013 42.5 0ZM57.375 45.238L37.7596 58.3149C37.2186 58.6497 36.5976 58.8331 35.9616 58.8461C35.4224 58.8457 34.8907 58.7198 34.4087 58.4784C33.886 58.1963 33.4501 57.7771 33.1477 57.2659C32.8453 56.7547 32.6879 56.1708 32.6923 55.5769V29.4231C32.6879 28.8292 32.8453 28.2453 33.1477 27.7341C33.4501 27.2229 33.886 26.8037 34.4087 26.5216C34.9334 26.256 35.5183 26.1314 36.1058 26.16C36.6933 26.1887 37.2632 26.3696 37.7596 26.6851L57.375 39.762C57.8303 40.0591 58.2044 40.4651 58.4633 40.9431C58.7222 41.4212 58.8578 41.9563 58.8578 42.5C58.8578 43.0437 58.7222 43.5788 58.4633 44.0569C58.2044 44.5349 57.8303 44.9409 57.375 45.238Z"/>
</g>
<defs>
<clipPath id="clip0_10_1135">
<rect width="100%" height="100%" rx="42.5" fill="transparent"/>
</clipPath>
</defs>
</svg>
