<svg stroke='currentColor' viewBox="0 0 30 30" fill="transparent" xmlns="http://www.w3.org/2000/svg">
    <path d="M14.6688 3.62946C15.3306 3.1567 16.25 3.62982 16.25 4.44319V25.5568C16.25 26.3702 15.3306 26.8433 14.6688 26.3705L7.5 21.25H3.25C2.14543 21.25 1.25 20.3546 1.25 19.25V10.75C1.25 9.64544 2.14543 8.75 3.25 8.75H7.5L14.6688 3.62946Z"  stroke-width="2" />
    <path d="M19.9922 21.1317C21.5433 19.5528 22.5 17.3881 22.5 15C22.5 12.6018 21.5352 10.429 19.9726 8.84848"  stroke-width="2" stroke-linecap="round" stroke-linejoin="round" />
    <path d="M23.4727 5.27728C25.961 7.76554 27.5 11.203 27.5 15C27.5 18.797 25.961 22.2345 23.4727 24.7227" stroke-width="2" stroke-linecap="round" stroke-linejoin="round" />
</svg>